<svg width="65" height="64" viewBox="0 0 65 64" fill="none" xmlns="http://www.w3.org/2000/svg">
<path fill-rule="evenodd" clip-rule="evenodd" d="M11.438 55.604L9.70203 9.37595C9.64736 7.84929 10.8207 6.55729 12.3447 6.46395L43.1554 4.53729L45.5087 5.33329L48.5687 4.19862L51.6567 4.00529C53.2074 3.90662 54.5447 5.08395 54.6447 6.63462C54.6487 6.69462 54.65 6.75595 54.65 6.81729V57.1866C54.6487 58.7426 53.386 60.0026 51.83 60.0013C51.7887 60.0013 51.7474 60 51.7074 59.9986L14.126 58.3106C12.662 58.2453 11.494 57.0693 11.438 55.604Z" fill="#FF4081"/>
<path fill-rule="evenodd" clip-rule="evenodd" d="M48.5657 4.19861L43.1564 4.53461L42.8937 10.8826C42.8844 11.1146 43.0644 11.3093 43.2964 11.3199C43.3937 11.3239 43.4884 11.2946 43.5657 11.2359L46.0297 9.36528L48.1124 11.0066C48.2937 11.1506 48.5591 11.1199 48.7017 10.9386C48.7631 10.8599 48.7951 10.7626 48.7924 10.6626L48.5684 4.19994L48.5657 4.19861ZM44.3551 25.4506C43.3671 26.2199 35.9857 26.7439 35.9857 25.6493C36.1431 21.4693 34.2724 21.2866 33.2311 21.2866C32.2457 21.2866 30.5817 21.5839 30.5817 23.8239C30.5817 26.1053 33.0124 27.3933 35.8657 28.9053C39.9177 31.0533 44.8257 33.6546 44.8257 40.1946C44.8257 46.4666 39.7297 49.9279 33.2337 49.9279C26.5284 49.9279 20.6671 47.2146 21.3284 37.8093C21.5884 36.7066 30.1151 36.9693 30.1151 37.8093C30.0084 41.6906 30.8937 42.8319 33.1284 42.8319C34.8444 42.8319 35.6231 41.8853 35.6231 40.2946C35.6231 37.8839 33.0924 36.4613 30.1777 34.8266C26.2324 32.6119 21.5897 30.0053 21.5897 24.0213C21.5897 18.0519 25.6951 14.0706 33.0244 14.0706C40.3537 14.0706 44.3551 17.9919 44.3551 25.4506Z" fill="white"/>
</svg>
